<svg width="84" height="86" viewBox="0 0 84 86" fill="none" xmlns="http://www.w3.org/2000/svg">
<g clip-path="url(#clip0)">
<rect x="14" y="18" width="52" height="52" fill="white"/>
<path d="M71.6937 12.5895C55.2892 -4.20053 28.6962 -4.1965 12.2967 12.5987C-4.10285 29.3939 -4.09891 56.6199 12.3057 73.4099C28.7103 90.1999 55.3032 90.1959 71.7027 73.4007C79.5787 65.3347 84.0022 54.3957 83.9997 42.9905C83.9974 31.5871 79.5708 20.6516 71.6937 12.5895ZM63.6072 59.8982C63.6054 59.9 63.6036 59.9021 63.6016 59.9039V59.8896L61.4736 62.0539C58.7214 64.9072 54.7132 66.0811 50.9035 65.1499C47.0653 64.0981 43.4165 62.4238 40.0956 60.1906C37.0102 58.1718 34.1509 55.8118 31.5696 53.1529C29.1945 50.739 27.0607 48.0885 25.1995 45.2409C23.1638 42.1768 21.5526 38.8389 20.4115 35.3222C19.1035 31.1908 20.1874 26.6575 23.2116 23.6119L25.7035 21.0606C26.3964 20.3481 27.5222 20.3456 28.218 21.0549C28.2198 21.0568 28.2217 21.0586 28.2235 21.0606L36.0915 29.1159C36.7874 29.8252 36.7899 30.9778 36.0971 31.6902C36.0953 31.692 36.0934 31.6939 36.0915 31.6959L31.4715 36.4259C30.1459 37.7683 29.9792 39.9015 31.0795 41.4426C32.7505 43.7905 34.5997 45.9998 36.6096 48.0503C38.8505 50.3545 41.2867 52.4506 43.8895 54.3141C45.3935 55.3881 47.4325 55.207 48.7335 53.8841L53.1994 49.2401C53.8923 48.5275 55.0181 48.525 55.7138 49.2344C55.7156 49.2362 55.7175 49.2381 55.7194 49.2401L63.6015 57.3241C64.2976 58.0332 64.3001 59.1857 63.6072 59.8982Z" fill="#3682F3"/>
</g>
<defs>
<clipPath id="clip0">
<rect width="84" height="86" fill="white"/>
</clipPath>
</defs>
</svg>
