<?xml version="1.0" encoding="utf-8"?>
<!-- Generator: Adobe Illustrator 23.0.3, SVG Export Plug-In . SVG Version: 6.00 Build 0)  -->
<svg version="1.1" id="Layer_1" xmlns="http://www.w3.org/2000/svg" xmlns:xlink="http://www.w3.org/1999/xlink" x="0px" y="0px"
	 viewBox="0 0 112.2 93" style="enable-background:new 0 0 112.2 93;" xml:space="preserve">
<path d="M109.8,29.3c-3.2-3.2-8.4-3.2-11.6,0c-1,1-7.2,7.2-8.2,8.2V15.9c0-2.2-0.9-4.2-2.4-5.8l-7.7-7.7C78.4,0.9,76.3,0,74.1,0
	H27.4c-4.5,0-8.2,3.7-8.2,8.2v76.7c0,4.5,3.7,8.2,8.2,8.2h54.5c4.5,0,8.2-3.7,8.2-8.2V60.6l19.8-19.8C113,37.6,113,32.5,109.8,29.3z
	 M73.7,5.4c0.5,0,1.5-0.1,2.4,0.8l7.7,7.7c0.9,0.9,0.8,1.8,0.8,2.4H73.7V5.4z M84.6,84.8c0,1.5-1.2,2.7-2.7,2.7H27.4
	c-1.5,0-2.7-1.2-2.7-2.7V8.2c0-1.5,1.2-2.7,2.7-2.7h40.9v13.6c0,1.5,1.2,2.7,2.7,2.7h13.6v21.1c0,0-8,8-8,8l-3.9,3.9
	c-0.3,0.3-0.5,0.7-0.7,1.1l-3.9,11.6c-0.3,1-0.1,2.1,0.7,2.8c0.7,0.7,1.8,1,2.8,0.7L83.2,67c0.4-0.1,0.8-0.4,1.1-0.7l0.3-0.3V84.8z
	 M78.5,56.7l3.9,3.9l-1.5,1.5L75.1,64l1.9-5.8L78.5,56.7z M86.2,56.7l-3.9-3.9c2.1-2.1,11.2-11.2,13.1-13.1l3.9,3.9L86.2,56.7z
	 M105.9,37l-2.8,2.8l-3.9-3.9l2.8-2.8c1.1-1.1,2.8-1.1,3.9,0C107,34.2,107,35.9,105.9,37z"/>
<path d="M70.9,27.2H32.8c-1.5,0-2.7,1.2-2.7,2.7c0,1.5,1.2,2.7,2.7,2.7h38.1c1.5,0,2.7-1.2,2.7-2.7C73.7,28.5,72.4,27.2,70.9,27.2z"
	/>
<path d="M60,38.1H32.8c-1.5,0-2.7,1.2-2.7,2.7c0,1.5,1.2,2.7,2.7,2.7H60c1.5,0,2.7-1.2,2.7-2.7C62.8,39.4,61.6,38.1,60,38.1z"/>
<path d="M60,49H32.8c-1.5,0-2.7,1.2-2.7,2.7s1.2,2.7,2.7,2.7H60c1.5,0,2.7-1.2,2.7-2.7S61.6,49,60,49z"/>
<path d="M60,59.9H32.8c-1.5,0-2.7,1.2-2.7,2.7s1.2,2.7,2.7,2.7H60c1.5,0,2.7-1.2,2.7-2.7S61.6,59.9,60,59.9z"/>
<path d="M70.9,76.7H54.6c-1.5,0-2.7,1.2-2.7,2.7c0,1.5,1.2,2.7,2.7,2.7h16.3c1.5,0,2.7-1.2,2.7-2.7C73.7,77.9,72.4,76.7,70.9,76.7z"
	/>
</svg>
