<svg width="19" height="27" viewBox="0 0 19 27" fill="none" xmlns="http://www.w3.org/2000/svg">
<path d="M9.49997 0C4.50754 0 0.445923 4.38655 0.445923 9.77832C0.445923 16.4697 8.54841 26.293 8.89338 26.7079C9.21741 27.0977 9.78313 27.097 10.1066 26.7079C10.4515 26.293 18.554 16.4697 18.554 9.77832C18.5539 4.38655 14.4924 0 9.49997 0ZM9.49997 14.6981C6.98816 14.6981 4.9447 12.4911 4.9447 9.77832C4.9447 7.06556 6.98821 4.85863 9.49997 4.85863C12.0117 4.85863 14.0552 7.06562 14.0552 9.77838C14.0552 12.4911 12.0117 14.6981 9.49997 14.6981Z" fill="white"/>
</svg>
