<svg width="22" height="18" viewBox="0 0 22 18" fill="none" xmlns="http://www.w3.org/2000/svg">
<path d="M0.459236 1.46044C3.47865 4.25002 8.77679 9.15773 10.334 10.688C10.543 10.8945 10.7672 10.9995 11 10.9995C11.2323 10.9995 11.4561 10.8955 11.6647 10.6899C13.2232 9.1582 18.5213 4.25002 21.5408 1.46044C21.7288 1.28709 21.7574 0.982406 21.6052 0.770484C21.2534 0.280781 20.7289 0 20.1666 0H1.83333C1.27117 0 0.746568 0.280781 0.394783 0.770531C0.242588 0.982406 0.271248 1.28709 0.459236 1.46044Z" fill="white"/>
<path d="M21.7342 2.97215C21.5717 2.88965 21.3806 2.91843 21.2454 3.04443C17.8969 6.14109 13.6233 10.1104 12.2788 11.4321C11.5241 12.1753 10.4767 12.1753 9.7203 11.4311C8.28712 10.0224 3.48803 5.57175 0.754617 3.04439C0.618535 2.91839 0.42698 2.89059 0.265848 2.9721C0.103855 3.05418 0 3.23095 0 3.42576V16C0 17.103 0.822207 18 1.83335 18H20.1667C21.1778 18 22 17.103 22 16V3.42576C22 3.23095 21.8961 3.05371 21.7342 2.97215Z" fill="white"/>
</svg>
