<?xml version="1.0" encoding="utf-8"?>
<!-- Generator: Adobe Illustrator 23.0.3, SVG Export Plug-In . SVG Version: 6.00 Build 0)  -->
<svg version="1.1" id="Layer_1" xmlns="http://www.w3.org/2000/svg" xmlns:xlink="http://www.w3.org/1999/xlink" x="0px" y="0px"
	 viewBox="0 0 140 84.2" style="enable-background:new 0 0 140 84.2;" xml:space="preserve">
<style type="text/css">
	.st0{clip-path:url(#SVGID_2_);}
</style>
<g>
	<defs>
		<rect id="SVGID_1_" width="140" height="115"/>
	</defs>
	<clipPath id="SVGID_2_">
		<use xlink:href="#SVGID_1_"  style="overflow:visible;"/>
	</clipPath>
	<g class="st0">
		<path d="M39.6,58c-7.2,0-13.1,5.7-13.1,12.6c0,6.9,5.9,12.6,13.1,12.6s13.1-5.7,13.1-12.6C52.7,63.6,46.8,58,39.6,58z M39.6,78.9
			c-4.8,0-8.7-3.8-8.7-8.4c0-4.6,3.9-8.4,8.7-8.4s8.7,3.8,8.7,8.4C48.3,75.2,44.4,78.9,39.6,78.9z"/>
		<path d="M113.8,58c-7.2,0-13.1,5.7-13.1,12.6c0,6.9,5.9,12.6,13.1,12.6c7.2,0,13.1-5.7,13.1-12.6C126.9,63.6,121,58,113.8,58z
			 M113.8,78.9c-4.8,0-8.7-3.8-8.7-8.4c0-4.6,3.9-8.4,8.7-8.4c4.8,0,8.7,3.8,8.7,8.4C122.5,75.2,118.6,78.9,113.8,78.9z"/>
		<path d="M139.7,46.3L120,16.9c-0.4-0.6-1.1-1-1.8-1h-24c-1.2,0-2.2,0.9-2.2,2.1v52.5c0,1.2,1,2.1,2.2,2.1h8.7v-4.2h-6.5V20.1H117
			l18.7,27.9v20.4h-10.9v4.2h13.1c1.2,0,2.2-0.9,2.2-2.1V47.5C140,47,139.9,46.7,139.7,46.3z"/>
		<path d="M105.1,43.2V28.5h17.5v-4.2h-19.6c-1.2,0-2.2,0.9-2.2,2.1v18.9c0,1.2,1,2.1,2.2,2.1h32.7v-4.2L105.1,43.2L105.1,43.2z"/>
		<path d="M94.2,1.3h-83C10,1.3,9,2.2,9,3.4v67.2c0,1.2,1,2.1,2.2,2.1h17.5v-4.2H13.4v-63H92v63H50.5v4.2h43.7
			c1.2,0,2.2-0.9,2.2-2.1V3.4C96.3,2.2,95.4,1.3,94.2,1.3z"/>
		<path d="M24.3,60H11.2v4.2h13.1V60z"/>
		<path d="M92,60H54.8v4.2H92V60z"/>
		<path d="M137.8,60h-8.7v4.2h8.7V60z"/>
		<path d="M94.2,9.7H17.7v4.2h76.4V9.7z"/>
		<path d="M41.8,68.4h-4.4v4.2h4.4V68.4z"/>
		<path d="M116,68.4h-4.4v4.2h4.4V68.4z"/>
	</g>
</g>
</svg>
