<svg width="112" height="112" viewBox="0 0 112 112" fill="none" xmlns="http://www.w3.org/2000/svg">
<path d="M111.876 73.4708C112.101 72.8861 112.016 72.2276 111.652 71.718C111.301 71.1937 110.698 70.8953 110.068 70.934L108.266 70.9975V65.334C108.266 64.3032 107.43 63.4674 106.4 63.4674H102.666V26.1342H106.4V22.4009H102.666V9.33427H98.9329V14.9342H95.1996V18.6676H98.9329V63.4674H95.1996C94.1687 63.4674 93.3329 64.3032 93.3329 65.334V71.5127L89.5996 71.6415V41.0675C89.5996 40.0366 88.7638 39.2008 87.733 39.2008H65.3331C64.3022 39.2008 63.4664 40.0366 63.4664 41.0675V57.8674H42.9332C41.9023 57.8674 41.0665 58.7032 41.0665 59.7341V73.3159L39.1998 73.3793V43.6995L67.1997 15.6996V22.4009C64.1069 22.4009 61.5997 24.908 61.5997 28.0009C61.5997 31.0937 64.1069 33.6008 67.1997 33.6008H74.6664V29.8675H67.1997C66.1689 29.8675 65.3331 29.0317 65.3331 28.0009C65.3331 26.97 66.1689 26.1342 67.1997 26.1342H69.0664C70.0972 26.1342 70.933 25.2984 70.933 24.2675V1.86764C70.933 0.836773 70.0975 0.000976562 69.0664 0.000976562C68.6853 0.000976562 68.3132 0.117643 68.0005 0.335109L30.9137 26.1342H7.46663C6.43577 26.1342 5.59998 26.97 5.59998 28.0009V74.5385L1.80133 74.6673C0.771163 74.704 -0.0345332 75.5687 0.00209999 76.5991C0.0107333 76.8429 0.0671997 77.0828 0.167999 77.3049L8.30103 95.2006H0V98.9339H112V95.2006H103.517L111.876 73.4708ZM97.0663 67.2007H104.533V71.1207L97.0663 71.3783V67.2007ZM67.1997 42.9341H85.8663V57.8674H67.1997V42.9341ZM67.1997 61.6007H85.8663V71.7703L82.6575 71.8804L67.1997 72.4124V61.6007ZM44.7998 61.6007H63.4664V72.5412L44.7998 73.1852V61.6007ZM67.1997 5.44042V10.4281L39.1998 38.428V28.0009C39.1968 27.0101 38.4161 26.1967 37.4265 26.1529L67.1997 5.44042ZM9.33329 29.8675H35.4665V73.5081L9.33329 74.4079V29.8675ZM12.4021 95.2006L4.72078 78.3036L107.387 74.7569L99.5172 95.2006H12.4021Z" fill="black"/>
<path d="M16.7999 33.6001H13.0666V41.0667H16.7999V33.6001Z" fill="black"/>
<path d="M24.2666 33.6001H20.5332V41.0667H24.2666V33.6001Z" fill="black"/>
<path d="M31.7332 33.6001H27.9999V41.0667H31.7332V33.6001Z" fill="black"/>
<path d="M33.5998 48.5334H11.2V52.2667H33.5998V48.5334Z" fill="black"/>
<path d="M33.5998 56H11.2V59.7333H33.5998V56Z" fill="black"/>
<path d="M91.4663 78.3999H87.733V82.1332H91.4663V78.3999Z" fill="black"/>
<path d="M98.9329 78.3999H95.1996V82.1332H98.9329V78.3999Z" fill="black"/>
<path d="M83.9996 78.3999H80.2663V82.1332H83.9996V78.3999Z" fill="black"/>
<path d="M108.266 100.8H83.9996V104.533H108.266V100.8Z" fill="black"/>
<path d="M76.533 108.266H65.3331V112H76.533V108.266Z" fill="black"/>
<path d="M55.9998 104.533H48.5331V108.266H55.9998V104.533Z" fill="black"/>
<path d="M13.0666 102.666H0V106.4H13.0666V102.666Z" fill="black"/>
<path d="M20.5332 102.666H16.7999V106.4H20.5332V102.666Z" fill="black"/>
</svg>
