<svg width="21" height="23" viewBox="0 0 21 23" fill="none" xmlns="http://www.w3.org/2000/svg">
<path d="M20.4284 16.8797L17.4978 13.67C16.4512 12.5236 14.6719 12.9822 14.2532 14.4724C13.9392 15.5041 12.8926 16.0773 11.9506 15.848C9.85728 15.2748 7.03133 12.2944 6.50801 9.88708C6.19402 8.85534 6.822 7.70901 7.76399 7.36516C9.12463 6.90663 9.54329 4.95787 8.49664 3.81154L5.56603 0.601822C4.72871 -0.200607 3.47273 -0.200607 2.74008 0.601822L0.75145 2.77985C-1.23718 5.0725 0.960779 11.148 5.88002 16.5358C10.7993 21.9235 16.3465 24.4455 18.4398 22.1528L20.4284 19.9748C21.1611 19.0577 21.1611 17.6821 20.4284 16.8797Z" fill="white"/>
</svg>
