<?xml version="1.0" encoding="utf-8"?>
<!-- Generator: Adobe Illustrator 23.0.3, SVG Export Plug-In . SVG Version: 6.00 Build 0)  -->
<svg version="1.1" id="Layer_1" xmlns="http://www.w3.org/2000/svg" xmlns:xlink="http://www.w3.org/1999/xlink" x="0px" y="0px"
	 viewBox="0 0 115 93.3" style="enable-background:new 0 0 115 93.3;" xml:space="preserve">
<path d="M92,2.2l-7.4,7.4H46.4C20.8,9.6,0,30.4,0,56c0,5.1,4.2,9.3,9.3,9.3h28.5c3.5,0,7-0.9,10.1-2.7l0.5-0.3
	c0,0.4-0.1,0.7-0.1,1.1c0,2.1,0.7,4,1.9,5.6H0v7.4v1.9v13h115v-13v-1.9V69h-5.6c1.2-1.6,1.9-3.5,1.9-5.6c0-2.1-0.7-4-1.9-5.6h5.6
	V11.5V9.6V2.2H92z M70.5,20.7h1.9c1,0,1.9,0.8,1.9,1.9v11.1c0,1-0.8,1.9-1.9,1.9h-1.9V20.7z M55.6,13.3h11.1v7.4h-9.3
	c-1,0-1.9-0.8-1.9-1.9V13.3z M33.4,15.3v7.2c0,5.1-4.2,9.3-9.3,9.3H11.2C16.5,24.1,24.3,18.2,33.4,15.3z M5.7,43h23.9v-3.7H7.1
	c0.5-1.3,1.1-2.5,1.8-3.7h15.2c7.2,0,13-5.8,13-13v-8.2c3-0.7,6.1-1,9.3-1h5.6v5.6c0,3.1,2.5,5.6,5.6,5.6h9.3v7.4h-9.3
	c-3.1,0-5.6,2.5-5.6,5.6v8.5l-8.2,8.2h-40C3.9,50.3,4.6,46.5,5.7,43z M66.8,35.6V43H55.6v-5.6c0-1,0.8-1.9,1.9-1.9H66.8z M46,59.3
	c-2.5,1.4-5.4,2.2-8.3,2.2H9.3c-2.4,0-4.5-1.6-5.2-3.7h40.5h0.8h3.4L46,59.3z M111.3,72.7v3.7h-3.7v3.7h3.7v7.4H3.7v-7.4h100.2v-3.7
	H3.7v-3.7H111.3z M51.9,63.4c0-1.8,0.9-3.4,2.3-4.5l1.2-0.7c0.6-0.3,1.3-0.4,2.1-0.4c3.1,0,5.6,2.5,5.6,5.6c0,3.1-2.5,5.6-5.6,5.6
	S51.9,66.5,51.9,63.4z M65.8,59.4c-0.3-0.6-0.6-1.1-1-1.6h1.9C66.4,58.3,66.1,58.9,65.8,59.4z M66.8,69h-1.9c0.4-0.5,0.7-1,1-1.6
	C66.1,67.9,66.4,68.5,66.8,69z M68.6,63.4c0-3.1,2.5-5.6,5.6-5.6c3.1,0,5.6,2.5,5.6,5.6c0,3.1-2.5,5.6-5.6,5.6
	C71.1,69,68.6,66.5,68.6,63.4z M94.6,69H81.6c1.2-1.6,1.9-3.5,1.9-5.6c0-2.1-0.7-4-1.9-5.6h13.1c-1.2,1.6-1.9,3.5-1.9,5.6
	C92.7,65.5,93.5,67.4,94.6,69z M96.5,63.4c0-3.1,2.5-5.6,5.6-5.6c3.1,0,5.6,2.5,5.6,5.6c0,3.1-2.5,5.6-5.6,5.6
	C98.9,69,96.5,66.5,96.5,63.4z M111.3,54.1H55.6h-0.5H49l7.4-7.4h54.9V54.1z M111.3,43h-26v-9.3c0-1,0.8-1.9,1.9-1.9h24.1V43z
	 M111.3,28.1H87.2c-3.1,0-5.6,2.5-5.6,5.6V43H70.5v-3.7h1.9c3.1,0,5.6-2.5,5.6-5.6V22.6c0-3.1-2.5-5.6-5.6-5.6h-1.9v-3.7h40.8V28.1z
	 M111.3,9.6H89.8l3.7-3.7h17.8V9.6z"/>
<path d="M37.1,39.3h-3.7V43h3.7V39.3z"/>
</svg>
